<svg width="919.9999389648438" height="883.6363525390625" class="scatterD3" id="scatterD3-svg-scatterD3-LDVAQZCM" xmlns="http://www.w3.org/2000/svg" version="1.1"><style>.scatterD3 {font: 11px Open Sans, Droid Sans, Helvetica, Verdana, sans-serif;}.scatterD3 .axis line, .axis path { stroke: #000; fill: none; shape-rendering: CrispEdges;} .scatterD3 .axis .tick line { stroke: #ddd;} .scatterD3 .axis text { fill: #000; }</style><g class="root" transform="translate(30,5)"><rect class="viewport" width="729.9999389648438" height="729.9999389648438" style="fill: rgb(255, 255, 255);"></rect><g class="x axis" transform="translate(0,729.9999389648438)" fill="none" font-size="10" font-family="sans-serif" text-anchor="middle" style="font-size: 100%;"><path class="domain" stroke="currentColor" d="M0,-729.9999389648438V0H729.9999389648438V-729.9999389648438"></path><g class="tick" opacity="1" transform="translate(45.392452881606005,0)"><line stroke="currentColor" y2="-729.9999389648438"></line><text fill="currentColor" y="3" dy="0.71em">−4</text></g><g class="tick" opacity="1" transform="translate(119.80631006456663,0)"><line stroke="currentColor" y2="-729.9999389648438"></line><text fill="currentColor" y="3" dy="0.71em">−3</text></g><g class="tick" opacity="1" transform="translate(194.22016724752726,0)"><line stroke="currentColor" y2="-729.9999389648438"></line><text fill="currentColor" y="3" dy="0.71em">−2</text></g><g class="tick" opacity="1" transform="translate(268.63402443048784,0)"><line stroke="currentColor" y2="-729.9999389648438"></line><text fill="currentColor" y="3" dy="0.71em">−1</text></g><g class="tick" opacity="1" transform="translate(343.0478816134485,0)"><line stroke="currentColor" y2="-729.9999389648438"></line><text fill="currentColor" y="3" dy="0.71em">0</text></g><g class="tick" opacity="1" transform="translate(417.4617387964092,0)"><line stroke="currentColor" y2="-729.9999389648438"></line><text fill="currentColor" y="3" dy="0.71em">1</text></g><g class="tick" opacity="1" transform="translate(491.8755959793698,0)"><line stroke="currentColor" y2="-729.9999389648438"></line><text fill="currentColor" y="3" dy="0.71em">2</text></g><g class="tick" opacity="1" transform="translate(566.2894531623303,0)"><line stroke="currentColor" y2="-729.9999389648438"></line><text fill="currentColor" y="3" dy="0.71em">3</text></g><g class="tick" opacity="1" transform="translate(640.7033103452909,0)"><line stroke="currentColor" y2="-729.9999389648438"></line><text fill="currentColor" y="3" dy="0.71em">4</text></g><g class="tick" opacity="1" transform="translate(715.1171675282516,0)"><line stroke="currentColor" y2="-729.9999389648438"></line><text fill="currentColor" y="3" dy="0.71em">5</text></g></g><g class="y axis" fill="none" font-size="10" font-family="sans-serif" text-anchor="end" style="font-size: 100%;"><path class="domain" stroke="currentColor" d="M729.9999389648438,729.9999389648438H0V0H729.9999389648438"></path><g class="tick" opacity="1" transform="translate(0,709.1640589536148)"><line stroke="currentColor" x2="729.9999389648438"></line><text fill="currentColor" x="-3" dy="0.32em">−5</text></g><g class="tick" opacity="1" transform="translate(0,634.7502017706541)"><line stroke="currentColor" x2="729.9999389648438"></line><text fill="currentColor" x="-3" dy="0.32em">−4</text></g><g class="tick" opacity="1" transform="translate(0,560.3363445876936)"><line stroke="currentColor" x2="729.9999389648438"></line><text fill="currentColor" x="-3" dy="0.32em">−3</text></g><g class="tick" opacity="1" transform="translate(0,485.9224874047329)"><line stroke="currentColor" x2="729.9999389648438"></line><text fill="currentColor" x="-3" dy="0.32em">−2</text></g><g class="tick" opacity="1" transform="translate(0,411.5086302217722)"><line stroke="currentColor" x2="729.9999389648438"></line><text fill="currentColor" x="-3" dy="0.32em">−1</text></g><g class="tick" opacity="1" transform="translate(0,337.0947730388117)"><line stroke="currentColor" x2="729.9999389648438"></line><text fill="currentColor" x="-3" dy="0.32em">0</text></g><g class="tick" opacity="1" transform="translate(0,262.680915855851)"><line stroke="currentColor" x2="729.9999389648438"></line><text fill="currentColor" x="-3" dy="0.32em">1</text></g><g class="tick" opacity="1" transform="translate(0,188.2670586728904)"><line stroke="currentColor" x2="729.9999389648438"></line><text fill="currentColor" x="-3" dy="0.32em">2</text></g><g class="tick" opacity="1" transform="translate(0,113.85320148992973)"><line stroke="currentColor" x2="729.9999389648438"></line><text fill="currentColor" x="-3" dy="0.32em">3</text></g><g class="tick" opacity="1" transform="translate(0,39.439344306969105)"><line stroke="currentColor" x2="729.9999389648438"></line><text fill="currentColor" x="-3" dy="0.32em">4</text></g></g><text class="x-axis-label" transform="translate(724.9999389648438,723.9999389648438)" style="text-anchor: end; font-size: 100%;">Axis 1 (9.64%)</text><text class="y-axis-label" transform="translate(5,6) rotate(-90)" dy=".71em" style="text-anchor: end; font-size: 100%;">Axis 2 (5.72%)</text><svg class="chart-body" width="729.9999389648438" height="729.9999389648438"><path class="line" d="M0,337.0947730388117L729.9999389648438,337.0947730388117" style="stroke-width: 1px; stroke: rgb(0, 0, 0); stroke-dasharray: 5;"></path><path class="line" d="M343.0478816134485,0L343.0478816134485,729.9999389648438" style="stroke-width: 1px; stroke: rgb(0, 0, 0); stroke-dasharray: 5;"></path><path transform="translate(309.6360597382992,333.00201089374883)" d="M4.222008245644752,0A4.222008245644752,4.222008245644752,0,1,1,-4.222008245644752,0A4.222008245644752,4.222008245644752,0,1,1,4.222008245644752,0" class="dot symbol symbol-cActive color color-cClause_Order" style="fill: rgb(31, 119, 180); opacity: 1;"></path><path transform="translate(432.8654072332819,348.1080239018898)" d="M4.222008245644752,0A4.222008245644752,4.222008245644752,0,1,1,-4.222008245644752,0A4.222008245644752,4.222008245644752,0,1,1,4.222008245644752,0" class="dot symbol symbol-cActive color color-cClause_Order" style="fill: rgb(31, 119, 180); opacity: 1;"></path><path transform="translate(279.79610300793195,289.3954905845339)" d="M4.222008245644752,0A4.222008245644752,4.222008245644752,0,1,1,-4.222008245644752,0A4.222008245644752,4.222008245644752,0,1,1,4.222008245644752,0" class="dot symbol symbol-cActive color color-cConnector" style="fill: rgb(214, 39, 40); opacity: 1;"></path><path transform="translate(436.36285852088116,335.3088404664206)" d="M4.222008245644752,0A4.222008245644752,4.222008245644752,0,1,1,-4.222008245644752,0A4.222008245644752,4.222008245644752,0,1,1,4.222008245644752,0" class="dot symbol symbol-cActive color color-cConnector" style="fill: rgb(214, 39, 40); opacity: 1;"></path><path transform="translate(347.0662299013284,400.27213778714525)" d="M4.222008245644752,0A4.222008245644752,4.222008245644752,0,1,1,-4.222008245644752,0A4.222008245644752,4.222008245644752,0,1,1,4.222008245644752,0" class="dot symbol symbol-cActive color color-cConnector" style="fill: rgb(214, 39, 40); opacity: 1;"></path><path transform="translate(417.610566510775,289.32107672735094)" d="M4.222008245644752,0A4.222008245644752,4.222008245644752,0,1,1,-4.222008245644752,0A4.222008245644752,4.222008245644752,0,1,1,4.222008245644752,0" class="dot symbol symbol-cActive color color-cConnector" style="fill: rgb(214, 39, 40); opacity: 1;"></path><path transform="translate(325.1885558895379,499.3169816976658)" d="M4.222008245644752,0A4.222008245644752,4.222008245644752,0,1,1,-4.222008245644752,0A4.222008245644752,4.222008245644752,0,1,1,4.222008245644752,0" class="dot symbol symbol-cActive color color-cConnector" style="fill: rgb(214, 39, 40); opacity: 1;"></path><path transform="translate(471.70944068278743,-30.509681445013854)" d="M4.222008245644752,0A4.222008245644752,4.222008245644752,0,1,1,-4.222008245644752,0A4.222008245644752,4.222008245644752,0,1,1,4.222008245644752,0" class="dot symbol symbol-cActive color color-cConnector" style="fill: rgb(214, 39, 40); opacity: 1;"></path><path transform="translate(394.5422707840573,245.86338413250192)" d="M4.222008245644752,0A4.222008245644752,4.222008245644752,0,1,1,-4.222008245644752,0A4.222008245644752,4.222008245644752,0,1,1,4.222008245644752,0" class="dot symbol symbol-cActive color color-cConnector" style="fill: rgb(214, 39, 40); opacity: 1;"></path><path transform="translate(471.70944068278743,-30.509681445013854)" d="M4.222008245644752,0A4.222008245644752,4.222008245644752,0,1,1,-4.222008245644752,0A4.222008245644752,4.222008245644752,0,1,1,4.222008245644752,0" class="dot symbol symbol-cActive color color-cConnector" style="fill: rgb(214, 39, 40); opacity: 1;"></path><path transform="translate(508.321058416804,619.867430334062)" d="M4.222008245644752,0A4.222008245644752,4.222008245644752,0,1,1,-4.222008245644752,0A4.222008245644752,4.222008245644752,0,1,1,4.222008245644752,0" class="dot symbol symbol-cActive color color-cConnector" style="fill: rgb(214, 39, 40); opacity: 1;"></path><path transform="translate(383.75226149252796,431.97244094708634)" d="M4.222008245644752,0A4.222008245644752,4.222008245644752,0,1,1,-4.222008245644752,0A4.222008245644752,4.222008245644752,0,1,1,4.222008245644752,0" class="dot symbol symbol-cActive color color-cConnector" style="fill: rgb(214, 39, 40); opacity: 1;"></path><path transform="translate(343.0478816134485,337.0947730388117)" d="M4.222008245644752,0A4.222008245644752,4.222008245644752,0,1,1,-4.222008245644752,0A4.222008245644752,4.222008245644752,0,1,1,4.222008245644752,0" class="dot symbol symbol-cActive color color-cElliptical_Antecedent_in_Consequent" style="fill: rgb(44, 160, 44); opacity: 1;"></path><path transform="translate(341.78284604133813,321.9143461734877)" d="M4.222008245644752,0A4.222008245644752,4.222008245644752,0,1,1,-4.222008245644752,0A4.222008245644752,4.222008245644752,0,1,1,4.222008245644752,0" class="dot symbol symbol-cActive color color-cNumber_of_Clauses" style="fill: rgb(255, 127, 14); opacity: 1;"></path><path transform="translate(350.19161190301276,423.7869166569607)" d="M4.222008245644752,0A4.222008245644752,4.222008245644752,0,1,1,-4.222008245644752,0A4.222008245644752,4.222008245644752,0,1,1,4.222008245644752,0" class="dot symbol symbol-cActive color color-cNumber_of_Clauses" style="fill: rgb(255, 127, 14); opacity: 1;"></path><path transform="translate(340.0713273261301,332.5555277506511)" d="M4.222008245644752,0A4.222008245644752,4.222008245644752,0,1,1,-4.222008245644752,0A4.222008245644752,4.222008245644752,0,1,1,4.222008245644752,0" class="dot symbol symbol-cActive color color-cPhrase_Types" style="fill: rgb(148, 103, 189); opacity: 1;"></path><path transform="translate(368.9439039131188,376.4597034885978)" d="M4.222008245644752,0A4.222008245644752,4.222008245644752,0,1,1,-4.222008245644752,0A4.222008245644752,4.222008245644752,0,1,1,4.222008245644752,0" class="dot symbol symbol-cActive color color-cPhrase_Types" style="fill: rgb(148, 103, 189); opacity: 1;"></path><path transform="translate(444.5483828110068,289.3954905845339)" d="M4.222008245644752,0A4.222008245644752,4.222008245644752,0,1,1,-4.222008245644752,0A4.222008245644752,4.222008245644752,0,1,1,4.222008245644752,0" class="dot symbol symbol-cActive color color-cSentence_Type" style="fill: rgb(140, 86, 75); opacity: 1;"></path><path transform="translate(306.1386084507001,354.4332017624414)" d="M4.222008245644752,0A4.222008245644752,4.222008245644752,0,1,1,-4.222008245644752,0A4.222008245644752,4.222008245644752,0,1,1,4.222008245644752,0" class="dot symbol symbol-cActive color color-cSentence_Type" style="fill: rgb(140, 86, 75); opacity: 1;"></path><path transform="translate(351.82871676103787,369.3159731990336)" d="M4.222008245644752,0A4.222008245644752,4.222008245644752,0,1,1,-4.222008245644752,0A4.222008245644752,4.222008245644752,0,1,1,4.222008245644752,0" class="dot symbol symbol-cActive color color-cVerb_position" style="fill: rgb(227, 119, 194); opacity: 1;"></path><path transform="translate(250.03056013474773,243.7053822741961)" d="M4.222008245644752,0A4.222008245644752,4.222008245644752,0,1,1,-4.222008245644752,0A4.222008245644752,4.222008245644752,0,1,1,4.222008245644752,0" class="dot symbol symbol-cActive color color-cVerb_position" style="fill: rgb(227, 119, 194); opacity: 1;"></path><path transform="translate(460.7706036768922,250.40262942066252)" d="M4.222008245644752,0A4.222008245644752,4.222008245644752,0,1,1,-4.222008245644752,0A4.222008245644752,4.222008245644752,0,1,1,4.222008245644752,0" class="dot symbol symbol-cActive color color-cVerb_position" style="fill: rgb(227, 119, 194); opacity: 1;"></path><path transform="translate(372.21811362916907,393.3516490691299)" d="M4.222008245644752,0A4.222008245644752,4.222008245644752,0,1,1,-4.222008245644752,0A4.222008245644752,4.222008245644752,0,1,1,4.222008245644752,0" class="dot symbol symbol-cActive color color-cVerb_position" style="fill: rgb(227, 119, 194); opacity: 1;"></path><path transform="translate(434.20485666257525,403.2486920744637)" d="M4.222008245644752,0A4.222008245644752,4.222008245644752,0,1,1,-4.222008245644752,0A4.222008245644752,4.222008245644752,0,1,1,4.222008245644752,0" class="dot symbol symbol-cActive color color-cVerb_position" style="fill: rgb(227, 119, 194); opacity: 1;"></path><path transform="translate(321.0957937444751,351.15899204639123)" d="M4.222008245644752,0A4.222008245644752,4.222008245644752,0,1,1,-4.222008245644752,0A4.222008245644752,4.222008245644752,0,1,1,4.222008245644752,0" class="dot symbol symbol-cActive color color-cVerb_position" style="fill: rgb(227, 119, 194); opacity: 1;"></path><path transform="translate(289.91638758481463,263.87153757077834)" d="M4.222008245644752,0A4.222008245644752,4.222008245644752,0,1,1,-4.222008245644752,0A4.222008245644752,4.222008245644752,0,1,1,4.222008245644752,0" class="dot symbol symbol-cActive color color-cVerb_position" style="fill: rgb(227, 119, 194); opacity: 1;"></path><path transform="translate(282.92148500961633,331.88580303600435)" d="M4.222008245644752,0A4.222008245644752,4.222008245644752,0,1,1,-4.222008245644752,0A4.222008245644752,4.222008245644752,0,1,1,4.222008245644752,0" class="dot symbol symbol-cActive color color-cVerb_position" style="fill: rgb(227, 119, 194); opacity: 1;"></path><path transform="translate(245.34248713222124,211.18652668524228)" d="M4.222008245644752,0A4.222008245644752,4.222008245644752,0,1,1,-4.222008245644752,0A4.222008245644752,4.222008245644752,0,1,1,4.222008245644752,0" class="dot symbol symbol-cActive color color-cVerb_position" style="fill: rgb(227, 119, 194); opacity: 1;"></path><path transform="translate(332.70435546501693,246.30986727559966)" d="M4.222008245644752,0A4.222008245644752,4.222008245644752,0,1,1,-4.222008245644752,0A4.222008245644752,4.222008245644752,0,1,1,4.222008245644752,0" class="dot symbol symbol-cActive color color-cVerb_position" style="fill: rgb(227, 119, 194); opacity: 1;"></path><path transform="translate(265.80629785753536,313.2079248830813)" d="M4.222008245644752,0A4.222008245644752,4.222008245644752,0,1,1,-4.222008245644752,0A4.222008245644752,4.222008245644752,0,1,1,4.222008245644752,0" class="dot symbol symbol-cActive color color-cVerb_position" style="fill: rgb(227, 119, 194); opacity: 1;"></path><path transform="translate(278.60548129300463,591.8878200332688)" d="M4.222008245644752,0A4.222008245644752,4.222008245644752,0,1,1,-4.222008245644752,0A4.222008245644752,4.222008245644752,0,1,1,4.222008245644752,0" class="dot symbol symbol-cActive color color-cVerb_position" style="fill: rgb(227, 119, 194); opacity: 1;"></path><path transform="translate(399.5279992153156,443.4321749532624)" d="M4.222008245644752,0A4.222008245644752,4.222008245644752,0,1,1,-4.222008245644752,0A4.222008245644752,4.222008245644752,0,1,1,4.222008245644752,0" class="dot symbol symbol-cActive color color-cVerb_position" style="fill: rgb(227, 119, 194); opacity: 1;"></path><path transform="translate(284.93065915355623,287.16307486904503)" d="M-5.019960159204453,-1.6733200530681511L-1.6733200530681511,-1.6733200530681511L-1.6733200530681511,-5.019960159204453L1.6733200530681511,-5.019960159204453L1.6733200530681511,-1.6733200530681511L5.019960159204453,-1.6733200530681511L5.019960159204453,1.6733200530681511L1.6733200530681511,1.6733200530681511L1.6733200530681511,5.019960159204453L-1.6733200530681511,5.019960159204453L-1.6733200530681511,1.6733200530681511L-5.019960159204453,1.6733200530681511Z" class="dot symbol symbol-cSupplementary color color-cCentury" style="fill: rgb(127, 127, 127); opacity: 1;"></path><path transform="translate(338.210980896556,338.5830501824708)" d="M-5.019960159204453,-1.6733200530681511L-1.6733200530681511,-1.6733200530681511L-1.6733200530681511,-5.019960159204453L1.6733200530681511,-5.019960159204453L1.6733200530681511,-1.6733200530681511L5.019960159204453,-1.6733200530681511L5.019960159204453,1.6733200530681511L1.6733200530681511,1.6733200530681511L1.6733200530681511,5.019960159204453L-1.6733200530681511,5.019960159204453L-1.6733200530681511,1.6733200530681511L-5.019960159204453,1.6733200530681511Z" class="dot symbol symbol-cSupplementary color color-cCentury" style="fill: rgb(127, 127, 127); opacity: 1;"></path><path transform="translate(379.80832706183105,364.8511417680559)" d="M-5.019960159204453,-1.6733200530681511L-1.6733200530681511,-1.6733200530681511L-1.6733200530681511,-5.019960159204453L1.6733200530681511,-5.019960159204453L1.6733200530681511,-1.6733200530681511L5.019960159204453,-1.6733200530681511L5.019960159204453,1.6733200530681511L1.6733200530681511,1.6733200530681511L1.6733200530681511,5.019960159204453L-1.6733200530681511,5.019960159204453L-1.6733200530681511,1.6733200530681511L-5.019960159204453,1.6733200530681511Z" class="dot symbol symbol-cSupplementary color color-cCentury" style="fill: rgb(127, 127, 127); opacity: 1;"></path><path transform="translate(301.89701859127126,321.46786303038994)" d="M-5.019960159204453,-1.6733200530681511L-1.6733200530681511,-1.6733200530681511L-1.6733200530681511,-5.019960159204453L1.6733200530681511,-5.019960159204453L1.6733200530681511,-1.6733200530681511L5.019960159204453,-1.6733200530681511L5.019960159204453,1.6733200530681511L1.6733200530681511,1.6733200530681511L1.6733200530681511,5.019960159204453L-1.6733200530681511,5.019960159204453L-1.6733200530681511,1.6733200530681511L-5.019960159204453,1.6733200530681511Z" class="dot symbol symbol-cSupplementary color color-cfile_genre" style="fill: rgb(188, 189, 34); opacity: 1;"></path><path transform="translate(335.75532360951837,346.02443590076695)" d="M-5.019960159204453,-1.6733200530681511L-1.6733200530681511,-1.6733200530681511L-1.6733200530681511,-5.019960159204453L1.6733200530681511,-5.019960159204453L1.6733200530681511,-1.6733200530681511L5.019960159204453,-1.6733200530681511L5.019960159204453,1.6733200530681511L1.6733200530681511,1.6733200530681511L1.6733200530681511,5.019960159204453L-1.6733200530681511,5.019960159204453L-1.6733200530681511,1.6733200530681511L-5.019960159204453,1.6733200530681511Z" class="dot symbol symbol-cSupplementary color color-cfile_genre" style="fill: rgb(188, 189, 34); opacity: 1;"></path><path transform="translate(362.69313990975013,335.45766818078647)" d="M-5.019960159204453,-1.6733200530681511L-1.6733200530681511,-1.6733200530681511L-1.6733200530681511,-5.019960159204453L1.6733200530681511,-5.019960159204453L1.6733200530681511,-1.6733200530681511L5.019960159204453,-1.6733200530681511L5.019960159204453,1.6733200530681511L1.6733200530681511,1.6733200530681511L1.6733200530681511,5.019960159204453L-1.6733200530681511,5.019960159204453L-1.6733200530681511,1.6733200530681511L-5.019960159204453,1.6733200530681511Z" class="dot symbol symbol-cSupplementary color color-cfile_genre" style="fill: rgb(188, 189, 34); opacity: 1;"></path><text text-anchor="middle" class="point-label color color-cClause_Order symbol symbol-cActive" transform="translate(309.6360597382992,333.00201089374883)" dx="0px" dy="-9.74165738677394px" style="font-size: 10px; fill: rgb(31, 119, 180);">Protasis&gt;Apodosis</text><text text-anchor="middle" class="point-label color color-cClause_Order symbol symbol-cActive" transform="translate(432.8654072332819,348.1080239018898)" dx="0px" dy="-9.74165738677394px" style="font-size: 10px; fill: rgb(31, 119, 180);">Apodosis&gt;Protasis</text><text text-anchor="middle" class="point-label color color-cConnector symbol symbol-cActive" transform="translate(279.79610300793195,289.3954905845339)" dx="0px" dy="-9.74165738677394px" style="font-size: 10px; fill: rgb(214, 39, 40);">je-je</text><text text-anchor="middle" class="point-label color color-cConnector symbol symbol-cActive" transform="translate(436.36285852088116,335.3088404664206)" dx="0px" dy="-9.74165738677394px" style="font-size: 10px; fill: rgb(214, 39, 40);">je-umso</text><text text-anchor="middle" class="point-label color color-cConnector symbol symbol-cActive" transform="translate(347.0662299013284,400.27213778714525)" dx="0px" dy="-9.74165738677394px" style="font-size: 10px; fill: rgb(214, 39, 40);">je-desto</text><text text-anchor="middle" class="point-label color color-cConnector symbol symbol-cActive" transform="translate(417.610566510775,289.32107672735094)" dx="0px" dy="-9.74165738677394px" style="font-size: 10px; fill: rgb(214, 39, 40);">je-Other</text><text text-anchor="middle" class="point-label color color-cConnector symbol symbol-cActive" transform="translate(325.1885558895379,499.3169816976658)" dx="0px" dy="-9.74165738677394px" style="font-size: 10px; fill: rgb(214, 39, 40);">desto-desto</text><text text-anchor="middle" class="point-label color color-cConnector symbol symbol-cActive" transform="translate(471.70944068278743,-30.509681445013854)" dx="0px" dy="-9.74165738677394px" style="font-size: 10px; fill: rgb(214, 39, 40);">desto-Other</text><text text-anchor="middle" class="point-label color color-cConnector symbol symbol-cActive" transform="translate(394.5422707840573,245.86338413250192)" dx="0px" dy="-9.74165738677394px" style="font-size: 10px; fill: rgb(214, 39, 40);">umso-Other</text><text text-anchor="middle" class="point-label color color-cConnector symbol symbol-cActive" transform="translate(471.70944068278743,-30.509681445013854)" dx="0px" dy="-9.74165738677394px" style="font-size: 10px; fill: rgb(214, 39, 40);">Other-desto</text><text text-anchor="middle" class="point-label color color-cConnector symbol symbol-cActive" transform="translate(508.321058416804,619.867430334062)" dx="0px" dy="-9.74165738677394px" style="font-size: 10px; fill: rgb(214, 39, 40);">Other-umso</text><text text-anchor="middle" class="point-label color color-cConnector symbol symbol-cActive" transform="translate(383.75226149252796,431.97244094708634)" dx="0px" dy="-9.74165738677394px" style="font-size: 10px; fill: rgb(214, 39, 40);">Other-Other</text><text text-anchor="middle" class="point-label color color-cElliptical_Antecedent_in_Consequent symbol symbol-cActive" transform="translate(343.0478816134485,337.0947730388117)" dx="0px" dy="-9.74165738677394px" style="font-size: 10px; fill: rgb(44, 160, 44);">elliptical A in C</text><text text-anchor="middle" class="point-label color color-cNumber_of_Clauses symbol symbol-cActive" transform="translate(341.78284604133813,321.9143461734877)" dx="0px" dy="-9.74165738677394px" style="font-size: 10px; fill: rgb(255, 127, 14);">2 clauses</text><text text-anchor="middle" class="point-label color color-cNumber_of_Clauses symbol symbol-cActive" transform="translate(350.19161190301276,423.7869166569607)" dx="0px" dy="-9.74165738677394px" style="font-size: 10px; fill: rgb(255, 127, 14);">&gt;2 clauses</text><text text-anchor="middle" class="point-label color color-cPhrase_Types symbol symbol-cActive" transform="translate(340.0713273261301,332.5555277506511)" dx="0px" dy="-9.74165738677394px" style="font-size: 10px; fill: rgb(148, 103, 189);">AdjP</text><text text-anchor="middle" class="point-label color color-cPhrase_Types symbol symbol-cActive" transform="translate(368.9439039131188,376.4597034885978)" dx="0px" dy="-9.74165738677394px" style="font-size: 10px; fill: rgb(148, 103, 189);">Andere</text><text text-anchor="middle" class="point-label color color-cSentence_Type symbol symbol-cActive" transform="translate(444.5483828110068,289.3954905845339)" dx="0px" dy="-9.74165738677394px" style="font-size: 10px; fill: rgb(140, 86, 75);">CC in main clause</text><text text-anchor="middle" class="point-label color color-cSentence_Type symbol symbol-cActive" transform="translate(306.1386084507001,354.4332017624414)" dx="0px" dy="-9.74165738677394px" style="font-size: 10px; fill: rgb(140, 86, 75);">CC in subordinate clause</text><text text-anchor="middle" class="point-label color color-cVerb_position symbol symbol-cActive" transform="translate(351.82871676103787,369.3159731990336)" dx="0px" dy="-9.74165738677394px" style="font-size: 10px; fill: rgb(227, 119, 194);">VL-V2</text><text text-anchor="middle" class="point-label color color-cVerb_position symbol symbol-cActive" transform="translate(250.03056013474773,243.7053822741961)" dx="0px" dy="-9.74165738677394px" style="font-size: 10px; fill: rgb(227, 119, 194);">VL-VL</text><text text-anchor="middle" class="point-label color color-cVerb_position symbol symbol-cActive" transform="translate(460.7706036768922,250.40262942066252)" dx="0px" dy="-9.74165738677394px" style="font-size: 10px; fill: rgb(227, 119, 194);">VL-VL(n)</text><text text-anchor="middle" class="point-label color color-cVerb_position symbol symbol-cActive" transform="translate(372.21811362916907,393.3516490691299)" dx="0px" dy="-9.74165738677394px" style="font-size: 10px; fill: rgb(227, 119, 194);">VL-V0</text><text text-anchor="middle" class="point-label color color-cVerb_position symbol symbol-cActive" transform="translate(434.20485666257525,403.2486920744637)" dx="0px" dy="-9.74165738677394px" style="font-size: 10px; fill: rgb(227, 119, 194);">VL-V1</text><text text-anchor="middle" class="point-label color color-cVerb_position symbol symbol-cActive" transform="translate(321.0957937444751,351.15899204639123)" dx="0px" dy="-9.74165738677394px" style="font-size: 10px; fill: rgb(227, 119, 194);">V0-V2</text><text text-anchor="middle" class="point-label color color-cVerb_position symbol symbol-cActive" transform="translate(289.91638758481463,263.87153757077834)" dx="0px" dy="-9.74165738677394px" style="font-size: 10px; fill: rgb(227, 119, 194);">V0-VL</text><text text-anchor="middle" class="point-label color color-cVerb_position symbol symbol-cActive" transform="translate(282.92148500961633,331.88580303600435)" dx="0px" dy="-9.74165738677394px" style="font-size: 10px; fill: rgb(227, 119, 194);">V0-V0</text><text text-anchor="middle" class="point-label color color-cVerb_position symbol symbol-cActive" transform="translate(245.34248713222124,211.18652668524228)" dx="0px" dy="-9.74165738677394px" style="font-size: 10px; fill: rgb(227, 119, 194);">V2-V2</text><text text-anchor="middle" class="point-label color color-cVerb_position symbol symbol-cActive" transform="translate(332.70435546501693,246.30986727559966)" dx="0px" dy="-9.74165738677394px" style="font-size: 10px; fill: rgb(227, 119, 194);">V2-VL</text><text text-anchor="middle" class="point-label color color-cVerb_position symbol symbol-cActive" transform="translate(265.80629785753536,313.2079248830813)" dx="0px" dy="-9.74165738677394px" style="font-size: 10px; fill: rgb(227, 119, 194);">V2-V0</text><text text-anchor="middle" class="point-label color color-cVerb_position symbol symbol-cActive" transform="translate(278.60548129300463,591.8878200332688)" dx="0px" dy="-9.74165738677394px" style="font-size: 10px; fill: rgb(227, 119, 194);">multiple in A</text><text text-anchor="middle" class="point-label color color-cVerb_position symbol symbol-cActive" transform="translate(399.5279992153156,443.4321749532624)" dx="0px" dy="-9.74165738677394px" style="font-size: 10px; fill: rgb(227, 119, 194);">multiple in P</text><text text-anchor="middle" class="point-label color color-cCentury symbol symbol-cSupplementary" transform="translate(284.93065915355623,287.16307486904503)" dx="0px" dy="-9.74165738677394px" style="font-size: 10px; fill: rgb(127, 127, 127);">17</text><text text-anchor="middle" class="point-label color color-cCentury symbol symbol-cSupplementary" transform="translate(338.210980896556,338.5830501824708)" dx="0px" dy="-9.74165738677394px" style="font-size: 10px; fill: rgb(127, 127, 127);">18</text><text text-anchor="middle" class="point-label color color-cCentury symbol symbol-cSupplementary" transform="translate(379.80832706183105,364.8511417680559)" dx="0px" dy="-9.74165738677394px" style="font-size: 10px; fill: rgb(127, 127, 127);">19</text><text text-anchor="middle" class="point-label color color-cfile_genre symbol symbol-cSupplementary" transform="translate(301.89701859127126,321.46786303038994)" dx="0px" dy="-9.74165738677394px" style="font-size: 10px; fill: rgb(188, 189, 34);">Fiction</text><text text-anchor="middle" class="point-label color color-cfile_genre symbol symbol-cSupplementary" transform="translate(335.75532360951837,346.02443590076695)" dx="0px" dy="-9.74165738677394px" style="font-size: 10px; fill: rgb(188, 189, 34);">Functional literature</text><text text-anchor="middle" class="point-label color color-cfile_genre symbol symbol-cSupplementary" transform="translate(362.69313990975013,335.45766818078647)" dx="0px" dy="-9.74165738677394px" style="font-size: 10px; fill: rgb(188, 189, 34);">Science</text></svg></g><defs><marker id="arrow-head-scatterD3-LDVAQZCM-#1f77b4" markerWidth="10" markerHeight="10" refX="10" refY="4" orient="auto"><path d="M0,0 L0,8 L10,4 L0,0" style="fill: rgb(31, 119, 180);"></path></marker><marker id="arrow-head-scatterD3-LDVAQZCM-#d62728" markerWidth="10" markerHeight="10" refX="10" refY="4" orient="auto"><path d="M0,0 L0,8 L10,4 L0,0" style="fill: rgb(214, 39, 40);"></path></marker><marker id="arrow-head-scatterD3-LDVAQZCM-#2ca02c" markerWidth="10" markerHeight="10" refX="10" refY="4" orient="auto"><path d="M0,0 L0,8 L10,4 L0,0" style="fill: rgb(44, 160, 44);"></path></marker><marker id="arrow-head-scatterD3-LDVAQZCM-#ff7f0e" markerWidth="10" markerHeight="10" refX="10" refY="4" orient="auto"><path d="M0,0 L0,8 L10,4 L0,0" style="fill: rgb(255, 127, 14);"></path></marker><marker id="arrow-head-scatterD3-LDVAQZCM-#9467bd" markerWidth="10" markerHeight="10" refX="10" refY="4" orient="auto"><path d="M0,0 L0,8 L10,4 L0,0" style="fill: rgb(148, 103, 189);"></path></marker><marker id="arrow-head-scatterD3-LDVAQZCM-#8c564b" markerWidth="10" markerHeight="10" refX="10" refY="4" orient="auto"><path d="M0,0 L0,8 L10,4 L0,0" style="fill: rgb(140, 86, 75);"></path></marker><marker id="arrow-head-scatterD3-LDVAQZCM-#e377c2" markerWidth="10" markerHeight="10" refX="10" refY="4" orient="auto"><path d="M0,0 L0,8 L10,4 L0,0" style="fill: rgb(227, 119, 194);"></path></marker><marker id="arrow-head-scatterD3-LDVAQZCM-#7f7f7f" markerWidth="10" markerHeight="10" refX="10" refY="4" orient="auto"><path d="M0,0 L0,8 L10,4 L0,0" style="fill: rgb(127, 127, 127);"></path></marker><marker id="arrow-head-scatterD3-LDVAQZCM-#bcbd22" markerWidth="10" markerHeight="10" refX="10" refY="4" orient="auto"><path d="M0,0 L0,8 L10,4 L0,0" style="fill: rgb(188, 189, 34);"></path></marker><marker id="arrow-head-scatterD3-LDVAQZCM-#17becf" markerWidth="10" markerHeight="10" refX="10" refY="4" orient="auto"><path d="M0,0 L0,8 L10,4 L0,0" style="fill: rgb(23, 190, 207);"></path></marker></defs><g class="legend" style="font-size: 100%;"><g class="color-legend-label" transform="translate(783.9999389648438, 50)"><text style="fill: rgb(0, 0, 0); font-weight: bold;">Variable</text></g><g class="color-legend" transform="translate(783.9999389648438, 62)"><g class="legendCells"><g class="cell" transform="translate(0, 0)"><rect class="swatch" height="15" width="15" style="fill: rgb(127, 127, 127);"></rect><text class="label" transform="translate( 25, 12.5)">Century</text></g><g class="cell" transform="translate(0, 18.45454502105713)"><rect class="swatch" height="15" width="15" style="fill: rgb(31, 119, 180);"></rect><text class="label" transform="translate( 25, 12.5)">Clause_Order</text></g><g class="cell" transform="translate(0, 36.90909004211426)"><rect class="swatch" height="15" width="15" style="fill: rgb(214, 39, 40);"></rect><text class="label" transform="translate( 25, 12.5)">Connector</text></g><g class="cell" transform="translate(0, 55.36363506317139)"><rect class="swatch" height="15" width="15" style="fill: rgb(44, 160, 44);"></rect><text class="label" transform="translate( 25, 12.5)">Elliptical_Antecedent_in_Consequent</text></g><g class="cell" transform="translate(0, 73.81818008422852)"><rect class="swatch" height="15" width="15" style="fill: rgb(255, 127, 14);"></rect><text class="label" transform="translate( 25, 12.5)">Number_of_Clauses</text></g><g class="cell" transform="translate(0, 92.27272510528564)"><rect class="swatch" height="15" width="15" style="fill: rgb(148, 103, 189);"></rect><text class="label" transform="translate( 25, 12.5)">Phrase_Types</text></g><g class="cell" transform="translate(0, 110.72727012634277)"><rect class="swatch" height="15" width="15" style="fill: rgb(140, 86, 75);"></rect><text class="label" transform="translate( 25, 12.5)">Sentence_Type</text></g><g class="cell" transform="translate(0, 129.1818151473999)"><rect class="swatch" height="15" width="15" style="fill: rgb(227, 119, 194);"></rect><text class="label" transform="translate( 25, 12.5)">Verb_position</text></g><g class="cell" transform="translate(0, 147.63636016845703)"><rect class="swatch" height="15" width="15" style="fill: rgb(188, 189, 34);"></rect><text class="label" transform="translate( 25, 12.5)">file_genre</text></g></g></g><g><text class="symbol-legend-label" transform="translate(783.9999389648438, 260)" style="fill: rgb(0, 0, 0); font-weight: bold;">Type</text></g><g class="symbol-legend" transform="translate(791.9999389648438, 276)"><g class="legendCells"><g class="cell" transform="translate(0, 0 )"><path class="swatch" d="M4.51351666838205,0A4.51351666838205,4.51351666838205,0,1,1,-4.51351666838205,0A4.51351666838205,4.51351666838205,0,1,1,4.51351666838205,0"></path><text class="label" transform="translate( 20.733126640319824,
              5.000000476837158)">Active</text></g><g class="cell" transform="translate(0, 20.45454502105713 )"><path class="swatch" d="M-5.366563145999495,-1.7888543819998317L-1.7888543819998317,-1.7888543819998317L-1.7888543819998317,-5.366563145999495L1.7888543819998317,-5.366563145999495L1.7888543819998317,-1.7888543819998317L5.366563145999495,-1.7888543819998317L5.366563145999495,1.7888543819998317L1.7888543819998317,1.7888543819998317L1.7888543819998317,5.366563145999495L-1.7888543819998317,5.366563145999495L-1.7888543819998317,1.7888543819998317L-5.366563145999495,1.7888543819998317Z"></path><text class="label" transform="translate( 20.733126640319824,
              5)">Supplementary</text></g></g></g></g></svg>